<?xml version="1.0" encoding="UTF-8" standalone="no"?>
<!DOCTYPE svg PUBLIC "-//W3C//DTD SVG 1.1//EN" "http://www.w3.org/Graphics/SVG/1.1/DTD/svg11.dtd">
<svg width="100%" height="100%" viewBox="0 0 810 937" version="1.1" xmlns="http://www.w3.org/2000/svg" xmlns:xlink="http://www.w3.org/1999/xlink" xml:space="preserve" xmlns:serif="http://www.serif.com/" style="fill-rule:evenodd;clip-rule:evenodd;">
    <g id="staff">
    </g>
    <g id="path2070" transform="matrix(2.367826,0,0,2.367826,-104.01312,-816.236038)">
        <g id="clef">
            <path id="path20701" serif:id="path2070" d="M43.928,729.002C76.685,706.884 101.149,690.139 116.906,678.563C132.663,667.194 149.249,652.93 166.249,635.979C183.25,619.029 197.555,599.804 209.166,578.512C218.288,562.801 226.166,544.61 232.593,523.938C239.02,503.473 242.338,483.629 242.96,464.817C242.96,447.246 240.679,430.502 235.91,414.792C231.349,398.874 223.471,385.851 212.275,375.309C201.08,364.973 186.567,359.805 168.53,359.805C151.115,359.805 134.736,363.319 119.394,370.141C104.259,377.169 93.478,388.332 87.466,404.042C87.466,405.489 86.637,407.35 85.393,410.037C85.807,413.345 87.466,415.825 90.576,417.686C93.686,419.546 96.381,420.373 98.869,420.373C100.113,420.373 103.637,419.753 109.028,418.513C114.625,417.272 119.187,416.445 122.918,416.445C133.907,416.445 143.651,420.373 152.566,428.022C161.274,435.67 165.627,444.972 165.627,455.928C165.627,463.784 163.347,471.226 158.993,478.047C154.639,484.869 148.627,490.45 140.956,494.378C133.285,498.512 124.784,500.373 115.662,500.373C99.076,500.373 84.978,495.411 73.368,485.282C61.965,474.946 56.16,461.923 56.16,445.593C56.16,424.714 62.587,406.73 75.234,391.433C88.088,376.135 104.259,364.766 124.162,357.117C143.858,349.262 163.761,345.541 184.079,345.541C206.263,345.541 227.41,351.123 247.106,362.492C267.009,373.655 282.559,389.159 294.169,408.383C305.779,427.815 311.791,448.487 311.791,470.812C311.791,510.502 298.523,547.298 271.985,581.406C245.447,615.514 212.69,645.075 173.506,670.295C147.383,687.452 105.089,710.604 46.83,739.752L43.928,729.002ZM331.902,409.21C331.902,401.768 334.597,395.567 339.988,390.606C345.171,385.438 351.598,382.957 359.269,382.957C365.903,382.957 372.123,385.851 377.721,391.433C383.318,396.807 386.014,403.215 386.014,410.244C386.014,417.686 383.111,424.094 377.721,429.262C371.916,434.223 365.488,436.704 358.232,436.704C350.561,436.704 344.341,434.223 339.366,428.642C334.39,423.267 331.902,416.859 331.902,409.21ZM331.902,517.53C331.902,510.088 334.597,503.68 339.573,498.719C344.756,493.551 351.183,491.07 359.269,491.07C365.903,491.07 371.916,493.758 377.721,499.339C383.111,504.921 386.014,510.915 386.014,517.53C386.014,525.592 383.318,532 378.135,537.168C372.745,542.336 366.525,545.024 359.269,545.024C351.183,545.024 344.756,542.336 339.573,537.375C334.597,532.414 331.902,525.799 331.902,517.53Z" style="fill-rule:nonzero;stroke:rgb(19,21,22);stroke-width:0.62px;"/>
        </g>
    </g>
    <g id="label">
    </g>
</svg>
