<?xml version="1.0" encoding="UTF-8" standalone="no"?>
<!DOCTYPE svg PUBLIC "-//W3C//DTD SVG 1.1//EN" "http://www.w3.org/Graphics/SVG/1.1/DTD/svg11.dtd">
<svg width="100%" height="100%" viewBox="0 0 425 1200" version="1.1" xmlns="http://www.w3.org/2000/svg" xmlns:xlink="http://www.w3.org/1999/xlink" xml:space="preserve" xmlns:serif="http://www.serif.com/" style="fill-rule:evenodd;clip-rule:evenodd;">
    <g id="staff">
    </g>
    <g id="path9" transform="matrix(1.478592,0,0,1.478592,-131.053443,-287.155206)">
        <g id="clef">
            <path id="path91" serif:id="path9" d="M253.154,641.98C240.687,644.537 229.133,651.378 218.106,662.275C207.064,673.372 201.154,686.029 200.188,700.032C199.58,708.834 201.898,719.044 206.982,730.047C212.052,741.251 220.337,749.661 231.422,755.451C235.177,756.514 236.844,758.639 236.651,761.44C236.582,762.44 235.109,763.343 231.645,763.908C213.714,758.048 199.35,747.208 188.727,731.803C178.118,716.197 173.261,698.978 174.185,679.746C176.209,659.183 183.75,640.408 196.796,623.62C210.056,606.646 226.367,595.109 245.727,589.008L236.791,517.037C204.142,540.512 177.24,565.389 155.856,592.053C134.486,618.517 122.375,648.032 119.323,680.584C118.717,695.214 120.745,709.625 125.421,723.616C130.084,737.806 137.65,750.79 148.093,762.967C169.193,787.136 197.857,800.972 233.669,804.649C245.957,804.693 259.143,803.392 273.429,800.76L253.154,641.98ZM267.73,640.976L288.399,796.969C320.136,786.697 337.441,760.756 340.284,719.547C339.432,705.62 336.277,692.94 330.218,681.467C324.373,669.808 316.157,660.397 305.369,653.221C294.581,646.045 282.169,641.972 267.73,640.976ZM240.977,430.093C247.87,426.549 255.973,420.073 264.871,410.839C273.756,401.804 282.564,390.955 291.067,378.678C299.785,366.214 306.913,353.44 312.45,340.356C317.973,327.471 321.048,315.02 321.849,303.418C322.194,298.417 322.138,293.388 321.439,288.918C321.134,281.661 319.314,275.907 315.767,271.843C312.205,267.98 307.53,265.647 301.514,265.232C289.482,264.402 278.143,271.056 267.496,285.196C259.193,297.486 251.928,312.261 246.329,329.16C240.516,346.246 236.722,363.27 235.12,380.646C234.756,400.52 236.847,416.945 240.977,430.093ZM227.543,440.824C220.755,407.795 218.019,374.441 219.335,340.765C221.026,319.174 224.626,299.121 230.135,280.608C235.443,262.08 242.376,246.278 250.963,232.801C259.349,219.309 268.703,209.302 278.825,202.765C287.89,196.958 294.341,193.986 297.75,194.221C300.357,194.401 302.494,195.554 304.375,197.493C306.256,199.431 308.656,202.612 311.588,206.834C333.119,242.288 342.335,283.927 339.05,331.538C337.49,354.143 332.964,375.94 325.429,397.53C318.11,418.934 308.051,439.143 295.282,457.759C282.299,476.561 267.489,492.624 250.64,506.134L261.444,586.072C270.337,585.681 276.408,585.296 279.817,585.531C295.057,586.583 308.473,590.724 320.664,597.997C332.856,605.27 343.091,614.62 351.155,626.231C359.233,637.642 365.196,650.515 369.042,664.85C372.688,679.172 374.287,693.955 373.238,709.158C371.61,732.763 363.903,753.939 350.131,772.486C336.359,791.032 316.73,803.949 291.028,811.421C291.956,821.334 293.784,835.731 296.739,854.226C299.479,872.906 301.48,887.717 302.74,898.658C304,909.599 304.084,920.056 303.38,930.259C302.29,946.062 297.513,959.802 289.038,971.679C280.361,983.542 269.271,992.425 255.567,998.313C242.063,1004.216 227.39,1006.62 211.748,1005.541C189.69,1004.019 170.867,996.489 155.265,983.152C139.678,969.615 132,952.402 132.661,931.142C133.911,921.781 136.725,913.132 141.315,905.006C145.905,896.881 151.789,890.453 159.166,885.736C166.357,880.806 174.772,878.572 184.238,878.623C192.059,879.162 199.327,881.875 206.056,886.56C212.57,891.431 217.785,897.62 221.485,905.312C224.985,912.991 226.625,921.345 226.017,930.147C225.203,941.949 220.502,951.675 211.915,959.323C203.328,966.971 192.811,970.467 180.579,969.623L175.967,969.304C182.959,981.847 195.365,988.934 213.212,990.165C222.236,990.788 231.599,989.424 241.072,986.459C250.759,983.309 258.925,978.847 265.984,972.903C273.043,966.958 277.924,960.461 280.226,953.384C284.201,945.417 286.592,934.125 287.572,919.922C288.234,910.32 287.894,900.649 286.752,890.922C285.596,881.395 283.658,868.599 280.924,852.732C278.177,837.066 276.198,824.87 275.16,816.557C262.921,818.728 250.377,819.47 237.343,818.571C215.485,817.063 195.134,811.236 176.304,800.892C157.473,790.548 141.284,776.969 127.549,759.942C114.014,742.928 103.826,724.136 97.012,703.164C90.385,682.406 87.637,660.91 88.955,638.892C91.165,618.543 96.328,599.201 104.817,581.295C113.32,563.189 123.759,546.222 136.321,530.607C148.883,514.992 161.749,500.805 174.907,488.246C188.25,475.901 205.667,460.018 227.543,440.824Z" style="fill:rgb(19,21,22);stroke:rgb(19,21,22);stroke-width:0.6px;"/>
        </g>
    </g>
    <g id="label">
    </g>
</svg>
