<?xml version="1.0" encoding="UTF-8"?>
<svg id="Layer_2" data-name="Layer 2" xmlns="http://www.w3.org/2000/svg" viewBox="0 0 523.03 528.82">
  <g id="Layer_1-2" data-name="Layer 1">
    <g>
      <path d="M211.05,262.47c12.52,0,29.71,2.61,40.45,15.04,5.81,6.72,9.1,15.53,9.79,26.2.74,11.36-1.57,24.78-6.67,38.81-11.28,31.04-34.75,63.06-66.08,90.15-20.04,17.33-42.24,31.56-64.19,41.14-20.69,9.03-40.73,13.8-57.97,13.8-12.52,0-29.71-2.61-40.46-15.04-5.81-6.72-9.1-15.53-9.79-26.2-.74-11.36,1.57-24.78,6.67-38.81,11.28-31.04,34.75-63.06,66.08-90.15,20.04-17.33,42.24-31.55,64.19-41.13,20.69-9.03,40.73-13.8,57.97-13.8h0M211.04,246.47c-38.86,0-88.59,20.75-132.63,58.83C9.44,364.94-19.48,444.51,13.83,483.03c12.04,13.92,30.56,20.57,52.56,20.57,38.86,0,88.59-20.75,132.63-58.83,68.97-59.64,97.89-139.21,64.59-177.73-12.04-13.92-30.56-20.57-52.56-20.57h0Z"/>
      <path d="M456.64,40.38c12.52,0,29.71,2.61,40.45,15.04,5.81,6.72,9.1,15.53,9.79,26.2.74,11.36-1.57,24.78-6.67,38.81-11.28,31.04-34.75,63.06-66.08,90.15-20.04,17.33-42.24,31.56-64.19,41.14-20.69,9.03-40.73,13.8-57.97,13.8-12.52,0-29.71-2.61-40.46-15.04-5.81-6.72-9.1-15.53-9.79-26.2-.74-11.36,1.57-24.78,6.67-38.81,11.28-31.04,34.75-63.06,66.08-90.15,20.04-17.33,42.24-31.55,64.19-41.13,20.69-9.03,40.73-13.8,57.97-13.8h0M456.64,24.38c-38.86,0-88.59,20.75-132.63,58.83-68.97,59.64-97.89,139.21-64.59,177.73,12.04,13.92,30.56,20.57,52.56,20.57,38.86,0,88.59-20.75,132.63-58.83,68.97-59.64,97.89-139.21,64.59-177.73-12.04-13.92-30.56-20.57-52.56-20.57h0Z"/>
      <path d="M256.86,263.6c-38.51,33.3-118.08,4.38-177.73-64.59C19.49,130.04,2.36,47.13,40.87,13.83c38.51-33.3,118.08-4.38,177.73,64.59,59.64,68.97,76.77,151.88,38.26,185.19"/>
      <path d="M250.31,289.85c3.38-9.78,8.77-18.15,16.27-24.64,38.51-33.3,118.08-4.38,177.73,64.59,59.64,68.97,76.77,151.88,38.26,185.19-38.51,33.3-118.08,4.38-177.73-64.59-48.03-55.54-68.49-120.12-54.53-160.55"/>
    </g>
  </g>
</svg>