<?xml version="1.0" encoding="UTF-8"?>
<svg id="Layer_2" data-name="Layer 2" xmlns="http://www.w3.org/2000/svg" viewBox="0 0 528.82 523.03">
  <g id="Layer_1-2" data-name="Layer 1">
    <g>
      <path d="M86.76,16c17.6,0,38.25,6.42,59.74,18.56,22.95,12.97,45.39,31.75,64.91,54.32,27.09,31.33,45.69,66.39,52.37,98.74,3.02,14.62,3.37,28.23,1,39.37-2.22,10.46-6.76,18.7-13.47,24.51-7.62,6.59-17.88,9.93-30.5,9.93-17.6,0-38.26-6.42-59.74-18.56-22.95-12.97-45.39-31.75-64.91-54.32-27.09-31.33-45.69-66.39-52.37-98.74-3.02-14.62-3.37-28.23-1-39.37,2.22-10.46,6.76-18.7,13.47-24.51,7.62-6.59,17.88-9.93,30.5-9.93h0M86.76,0c-16,0-30.12,4.44-40.97,13.83C7.28,47.13,24.41,130.04,84.05,199.01c42.84,49.54,95.96,78.42,136.76,78.42,16,0,30.12-4.44,40.97-13.83,38.51-33.3,21.38-116.21-38.26-185.19C180.68,28.87,127.56,0,86.76,0h0Z"/>
      <path d="M308.84,261.6c17.6,0,38.25,6.42,59.74,18.56,22.95,12.97,45.39,31.75,64.91,54.32,27.09,31.33,45.69,66.39,52.37,98.74,3.02,14.62,3.37,28.23,1,39.37-2.22,10.46-6.76,18.7-13.47,24.51-7.62,6.59-17.88,9.93-30.5,9.93-17.6,0-38.26-6.42-59.74-18.56-22.95-12.97-45.39-31.75-64.91-54.32-27.09-31.33-45.69-66.39-52.37-98.74-3.02-14.62-3.37-28.23-1-39.37,2.22-10.46,6.76-18.7,13.47-24.51,7.62-6.59,17.88-9.93,30.5-9.93h0M308.84,245.6c-16,0-30.12,4.44-40.97,13.83-38.51,33.3-21.38,116.21,38.26,185.19,42.84,49.54,95.96,78.42,136.76,78.42,16,0,30.12-4.44,40.97-13.83,38.51-33.3,21.38-116.21-38.26-185.19-42.84-49.54-95.96-78.42-136.76-78.42h0Z"/>
      <path d="M265.21,256.86c-33.3-38.51-4.38-118.08,64.59-177.73C398.78,19.49,481.69,2.36,514.99,40.87s4.38,118.08-64.59,177.73c-68.97,59.64-151.88,76.77-185.19,38.26"/>
      <path d="M238.97,250.31c9.78,3.38,18.15,8.77,24.64,16.27,33.3,38.51,4.38,118.08-64.59,177.73-68.97,59.64-151.88,76.77-185.19,38.26-33.3-38.51-4.38-118.08,64.59-177.73,55.54-48.03,120.12-68.49,160.55-54.53"/>
    </g>
  </g>
</svg>